<svg width="186" height="48" viewBox="0 0 186 48" fill="none" xmlns="http://www.w3.org/2000/svg"><path fill-rule="evenodd" clip-rule="evenodd" d="M34 28h-6.343a4 4 0 00-2.829 1.172l-1.656 1.656A4 4 0 0120.343 32H14a6 6 0 010-12h6.343a4 4 0 002.829-1.172l1.656-1.656A4 4 0 0127.657 16H34a6 6 0 010 12zm-6.343-8a4 4 0 00-2.829 1.172l-1.656 1.656A4 4 0 0120.343 24H14a2 2 0 100 4h6.343a4 4 0 002.829-1.172l1.656-1.656A4 4 0 0127.657 24H34a2 2 0 100-4h-6.343z" fill="gold"/><path fill-rule="evenodd" clip-rule="evenodd" d="M34 36h-6.343a4 4 0 00-2.829 1.172l-1.656 1.656A4 4 0 0120.343 40H14C6.268 40 0 33.732 0 26s6.268-14 14-14h6.343a4 4 0 002.829-1.172l1.656-1.656A4 4 0 0127.657 8H34c7.732 0 14 6.268 14 14s-6.268 14-14 14zm-6.343-24a4 4 0 00-2.829 1.172l-1.656 1.656A4 4 0 0120.343 16H14C8.477 16 4 20.477 4 26s4.477 10 10 10h6.343a4 4 0 002.829-1.172l1.656-1.656A4 4 0 0127.657 32H34c5.523 0 10-4.477 10-10s-4.477-10-10-10h-6.343z" fill="gold"/><path d="M58 33V14.478h14.796v3.294H62.05v4.131h9.504v3.267H62.05v4.509h10.908V33H58zm17.027 4.806V18.798h3.078l.324 1.917h.189c.468-.774 1.08-1.341 1.836-1.701.756-.36 1.593-.54 2.51-.54 1.189 0 2.206.261 3.052.783.864.522 1.52 1.332 1.97 2.43.469 1.098.703 2.511.703 4.239 0 1.674-.234 3.06-.702 4.158-.468 1.098-1.125 1.917-1.971 2.457-.828.522-1.8.783-2.916.783a6.379 6.379 0 01-1.701-.216 4.13 4.13 0 01-2.457-1.674h-.162v6.372h-3.753zm6.777-7.56c.756 0 1.35-.144 1.782-.432.45-.306.774-.756.972-1.35.198-.612.297-1.359.297-2.241v-.621c0-.9-.1-1.647-.297-2.241-.198-.612-.522-1.062-.972-1.35-.432-.306-1.026-.459-1.782-.459-.702 0-1.278.162-1.728.486-.45.324-.783.792-1 1.404-.215.612-.323 1.35-.323 2.214v.459c0 .63.063 1.206.189 1.728.126.504.306.936.54 1.296.252.36.567.639.945.837.378.18.837.27 1.377.27zM90.373 33V13.479h3.753v6.885h.19a4.642 4.642 0 011.08-.972 5.505 5.505 0 011.43-.675 6.082 6.082 0 011.755-.243c.936 0 1.755.171 2.457.513.702.342 1.242.882 1.62 1.62.396.738.594 1.701.594 2.889V33h-3.753v-8.91c0-.45-.054-.828-.162-1.134a1.816 1.816 0 00-.486-.783 1.622 1.622 0 00-.756-.459 3.631 3.631 0 00-1.026-.135c-.558 0-1.062.135-1.512.405-.45.27-.8.639-1.053 1.107-.252.468-.378 1.008-.378 1.62V33h-3.753zm21.616.324c-1.566 0-2.88-.261-3.942-.783-1.062-.54-1.863-1.359-2.403-2.457-.54-1.098-.81-2.493-.81-4.185 0-1.71.27-3.105.81-4.185.54-1.098 1.332-1.908 2.376-2.43 1.062-.54 2.358-.81 3.888-.81 1.44 0 2.655.261 3.645.783.99.504 1.737 1.296 2.241 2.376.504 1.062.756 2.439.756 4.131v.972h-9.909c.036.828.162 1.53.378 2.106.234.576.585 1.008 1.053 1.296.486.27 1.125.405 1.917.405a3.85 3.85 0 001.161-.162c.36-.108.666-.27.918-.486.252-.216.45-.486.594-.81a2.7 2.7 0 00.216-1.107h3.672c0 .9-.162 1.683-.486 2.349a4.709 4.709 0 01-1.35 1.674c-.576.432-1.269.765-2.079.999-.792.216-1.674.324-2.646.324zm-3.294-8.964h5.994c0-.54-.072-1.008-.216-1.404a2.533 2.533 0 00-.54-.972 1.963 1.963 0 00-.864-.54 3.037 3.037 0 00-1.107-.189c-.684 0-1.26.117-1.728.351a2.32 2.32 0 00-1.053 1.026c-.234.45-.396 1.026-.486 1.728zM120.223 33V18.798h3.105l.297 1.944h.189a5.387 5.387 0 011.08-1.215 4.82 4.82 0 011.431-.783 5.43 5.43 0 011.728-.27c.9 0 1.674.18 2.322.54.666.36 1.179.936 1.539 1.728h.189a5.093 5.093 0 011.107-1.215 4.686 4.686 0 011.485-.783 5.77 5.77 0 011.782-.27c.9 0 1.674.162 2.322.486.666.324 1.188.855 1.566 1.593.378.72.567 1.656.567 2.808V33h-3.753v-8.964c0-.45-.054-.828-.162-1.134-.09-.324-.225-.576-.405-.756a1.56 1.56 0 00-.675-.432 2.715 2.715 0 00-.864-.135 2.34 2.34 0 00-1.35.405 2.85 2.85 0 00-.945 1.107c-.216.468-.324 1.008-.324 1.62V33h-3.753v-8.964c0-.45-.054-.828-.162-1.134-.09-.324-.225-.576-.405-.756a1.56 1.56 0 00-.675-.432 2.56 2.56 0 00-.864-.135c-.486 0-.936.135-1.35.405a2.85 2.85 0 00-.945 1.107c-.216.468-.324 1.008-.324 1.62V33h-3.753zm29.42.324c-1.566 0-2.88-.261-3.942-.783-1.062-.54-1.863-1.359-2.403-2.457-.54-1.098-.81-2.493-.81-4.185 0-1.71.27-3.105.81-4.185.54-1.098 1.332-1.908 2.376-2.43 1.062-.54 2.358-.81 3.888-.81 1.44 0 2.655.261 3.645.783.99.504 1.737 1.296 2.241 2.376.504 1.062.756 2.439.756 4.131v.972h-9.909c.036.828.162 1.53.378 2.106.234.576.585 1.008 1.053 1.296.486.27 1.125.405 1.917.405a3.85 3.85 0 001.161-.162c.36-.108.666-.27.918-.486.252-.216.45-.486.594-.81a2.7 2.7 0 00.216-1.107h3.672c0 .9-.162 1.683-.486 2.349a4.709 4.709 0 01-1.35 1.674c-.576.432-1.269.765-2.079.999-.792.216-1.674.324-2.646.324zm-3.294-8.964h5.994c0-.54-.072-1.008-.216-1.404a2.533 2.533 0 00-.54-.972 1.963 1.963 0 00-.864-.54 3.037 3.037 0 00-1.107-.189c-.684 0-1.26.117-1.728.351a2.32 2.32 0 00-1.053 1.026c-.234.45-.396 1.026-.486 1.728zM157.878 33V18.798h3.105l.297 2.214h.189c.18-.468.414-.891.702-1.269a3.208 3.208 0 011.08-.945c.432-.234.936-.351 1.512-.351.306 0 .585.036.837.108.252.054.441.108.567.162v3.402h-1.161c-.558 0-1.053.081-1.485.243a2.472 2.472 0 00-1.053.702c-.288.324-.504.72-.648 1.188-.126.468-.189 1.017-.189 1.647V33h-3.753zm12.666.324c-.468 0-.972-.054-1.512-.162a4.969 4.969 0 01-1.485-.567 3.427 3.427 0 01-1.161-1.215c-.288-.54-.432-1.224-.432-2.052 0-.99.216-1.809.648-2.457.432-.648 1.044-1.152 1.836-1.512.81-.378 1.773-.639 2.889-.783a29.045 29.045 0 013.699-.216v-1.053c0-.414-.072-.774-.216-1.08-.126-.306-.36-.549-.702-.729-.324-.18-.783-.27-1.377-.27s-1.08.072-1.458.216c-.36.144-.621.333-.783.567a1.285 1.285 0 00-.216.729v.324h-3.645a1.251 1.251 0 01-.027-.243v-.324c0-.828.252-1.539.756-2.133.504-.612 1.215-1.08 2.133-1.404.918-.324 1.989-.486 3.213-.486 1.314 0 2.412.171 3.294.513.9.342 1.584.846 2.052 1.512.486.666.729 1.503.729 2.511v6.453c0 .324.09.567.27.729.198.144.414.216.648.216h.891v2.457c-.18.09-.459.18-.837.27-.378.108-.837.162-1.377.162-.522 0-.99-.081-1.404-.243a2.689 2.689 0 01-.999-.621 2.397 2.397 0 01-.567-1.026h-.189a4.707 4.707 0 01-1.134.999 5.24 5.24 0 01-1.539.675c-.576.162-1.242.243-1.998.243zm1.269-2.835c.504 0 .954-.072 1.35-.216.396-.162.729-.369.999-.621.27-.27.477-.594.621-.972.162-.378.243-.783.243-1.215v-.783c-1.008 0-1.908.072-2.7.216-.792.126-1.422.351-1.89.675-.45.324-.675.774-.675 1.35 0 .324.081.603.243.837.162.234.396.414.702.54.306.126.675.189 1.107.189zm9.56 2.511V13.479h3.753V33h-3.753z" fill="#fff"/></svg>