<svg width="196" height="48" viewBox="0 0 196 48" fill="none" xmlns="http://www.w3.org/2000/svg"><path fill-rule="evenodd" clip-rule="evenodd" d="M12.702 5a3.8 3.8 0 013.74 3.132l.465 2.603a3.8 3.8 0 003.741 3.132H23.8a8.867 8.867 0 015.248 16.014c.92.313 1.646.81 2.18 1.461.548.72.94 1.741 1.176 3.028.04.34.088.672.137 1.003.05.331.098.663.137 1.003.041.354.071.657.096.909.024.233.042.422.061.567.079 1.06.196 1.93.353 2.574.166.905.5 1.787.973 2.574h-6.698c-.314-.606-.51-1.325-.667-2.12-.135-.683-.24-1.535-.367-2.554l-.064-.511-.236-1.742c-.196-1.324-.431-2.27-.666-2.876a2.348 2.348 0 00-1.294-1.211c-.628-.227-1.569-.386-2.902-.386h-.302a3.8 3.8 0 01-3.74-3.132l-.466-2.603a3.8 3.8 0 00-3.74-3.132H7.332v10.134H1V5h11.702zm13.631 17.733c0 1.4-1.134 2.534-2.533 2.534h-3.152a3.8 3.8 0 01-3.74-3.132l-.465-2.603a3.8 3.8 0 00-3.741-3.132H7.333v-5.067h5.685a3.8 3.8 0 013.741 3.132l.465 2.603a3.8 3.8 0 003.74 3.132H23.8c1.4 0 2.533 1.134 2.533 2.533z" fill="gold"/><path d="M58.93 32.812V33h-4.644c-.243-1.27-.459-2.727-.675-4.482-.243-2.187-.918-2.835-3.483-2.835h-3.159V33H43V13.29h7.29c1.107 0 1.917.027 2.889.135 2.781.324 5.184 1.728 5.184 5.427 0 2.484-1.323 4.104-3.456 4.968 1.593.62 2.511 1.809 2.727 3.807.216 2.025.405 3.132.729 4.482l.567.702zM46.969 22.309h3.402c2.322 0 3.942-.621 3.942-2.808 0-1.998-1.08-2.808-3.807-2.808h-3.537v5.616zm19.913-3.942c4.671 0 6.642 3.05 6.642 7.263 0 .405-.027.945-.054 1.404h-9.747c.243 2.403 1.323 3.24 3.105 3.24 1.485 0 2.322-.567 2.7-1.62h3.753c-.513 2.997-2.835 4.725-6.534 4.725-4.59 0-6.966-2.511-6.966-7.425 0-4.644 2.241-7.587 7.101-7.587zm-3.132 5.967h5.886c-.216-2.08-1.296-2.89-2.916-2.89-1.7 0-2.727.757-2.97 2.89zm19.634-5.967c2.997 0 4.725 1.188 5.076 3.807.08.729.108 1.404.108 2.565V33h-3.861v-8.316c0-1.89-.513-3.105-2.646-3.105-1.755-.054-2.997 1.16-2.997 3.86V33h-3.861V18.746h3.537l.162 2.322c.459-2.106 2.133-2.7 4.482-2.7zm13.404 0c4.212 0 5.778 1.809 5.967 4.32.054.729.081 1.404.081 2.214V33h-3.483l-.216-1.89c-.648 1.917-2.35 2.268-4.455 2.268-2.62 0-4.671-1.485-4.671-4.266 0-3.564 2.727-4.86 8.235-4.86h.783v-.513c0-1.404-.46-2.295-2.403-2.295-1.701 0-2.457.594-2.62 1.917H90.47c.108-3.078 1.998-4.995 6.318-4.995zm-3.024 10.287c0 1.053.837 1.647 2.16 1.647 1.512 0 3.105-.864 3.105-2.268v-1.134c-3.402-.162-5.265.189-5.265 1.755zm15.215-9.909V33h-3.861V18.745h3.861zm-4.05-4.455c0-1.161.945-2.106 2.106-2.106 1.188 0 2.133.945 2.133 2.106 0 1.188-.945 2.106-2.133 2.106a2.092 2.092 0 01-2.106-2.106zm11.793 4.077c4.05 0 5.778 1.566 5.967 4.563h-3.726c-.189-1.323-1.08-1.647-2.322-1.647-1.134 0-1.998.432-1.998 1.242 0 .864.702 1.35 2.916 1.7 3.753.568 5.562 1.864 5.562 4.672 0 3.024-2.754 4.482-6.183 4.482-4.05 0-6.129-1.431-6.507-4.671h3.78c.243 1.296 1.053 1.728 2.835 1.728 1.404 0 2.241-.46 2.241-1.215 0-.945-.972-1.485-3.078-1.81-3.78-.62-5.4-1.754-5.4-4.643 0-2.62 2.322-4.401 5.913-4.401zm13.507 0c4.05 0 5.778 1.566 5.967 4.563h-3.726c-.189-1.323-1.08-1.647-2.322-1.647-1.134 0-1.998.432-1.998 1.242 0 .864.702 1.35 2.916 1.7 3.753.568 5.562 1.864 5.562 4.672 0 3.024-2.754 4.482-6.183 4.482-4.05 0-6.129-1.431-6.507-4.671h3.78c.243 1.296 1.053 1.728 2.835 1.728 1.404 0 2.241-.46 2.241-1.215 0-.945-.972-1.485-3.078-1.81-3.78-.62-5.4-1.754-5.4-4.643 0-2.62 2.322-4.401 5.913-4.401zm14.023 0c4.212 0 5.778 1.809 5.967 4.32.054.729.081 1.404.081 2.214V33h-3.483l-.216-1.89c-.648 1.917-2.349 2.268-4.455 2.268-2.619 0-4.671-1.485-4.671-4.266 0-3.564 2.727-4.86 8.235-4.86h.783v-.513c0-1.404-.459-2.295-2.403-2.295-1.701 0-2.457.594-2.619 1.917h-3.537c.108-3.078 1.998-4.995 6.318-4.995zm-3.024 10.287c0 1.053.837 1.647 2.16 1.647 1.512 0 3.105-.864 3.105-2.268v-1.134c-3.402-.162-5.265.189-5.265 1.755zm19.535-10.287c2.997 0 4.725 1.188 5.076 3.807.081.729.108 1.404.108 2.565V33h-3.861v-8.316c0-1.89-.513-3.105-2.646-3.105-1.755-.054-2.997 1.16-2.997 3.86V33h-3.861V18.746h3.537l.162 2.322c.459-2.106 2.133-2.7 4.482-2.7zm13.889 0c4.536 0 6.21 2.187 6.48 5.346h-3.834c-.135-1.485-1.161-2.241-2.7-2.241-1.971 0-3.051 1.377-3.051 4.347 0 2.997.972 4.428 3.024 4.428 1.458 0 2.538-.891 2.727-2.214h3.834c-.378 3.24-2.511 5.346-6.723 5.346-4.752 0-6.885-2.727-6.885-7.48 0-4.697 2.133-7.532 7.128-7.532zm14.508 0c4.671 0 6.642 3.05 6.642 7.263 0 .405-.027.945-.054 1.404h-9.747c.243 2.403 1.323 3.24 3.105 3.24 1.485 0 2.322-.567 2.7-1.62h3.753c-.513 2.997-2.835 4.725-6.534 4.725-4.59 0-6.966-2.511-6.966-7.425 0-4.644 2.241-7.587 7.101-7.587zm-3.132 5.967h5.886c-.216-2.08-1.296-2.89-2.916-2.89-1.701 0-2.727.757-2.97 2.89z" fill="#fff"/></svg>