<svg width="209" height="48" viewBox="0 0 209 48" fill="none" xmlns="http://www.w3.org/2000/svg"><path fill-rule="evenodd" clip-rule="evenodd" d="M22.102 20.86l9.9-9.9-2.122-2.12-7.339 7.339V3h-3v13.178l-7.339-7.34-2.121 2.122 9.9 9.9 1.06 1.06 1.06-1.06zm2.12 2.121l9.9-9.9 2.121 2.122-7.339 7.339H42v3H28.904l7.34 7.338-2.122 2.122-9.9-9.9-1.06-1.06 1.06-1.061zM7.96 35.001l9.9-9.899 1.06-1.06-1.06-1.061-9.9-9.9-2.121 2.122 7.339 7.339H.002v3h13.176l-7.34 7.338 2.122 2.122zm12.02-7.777l-9.9 9.9 2.122 2.12 7.339-7.338V45h3V31.906l7.339 7.338 2.12-2.12-9.9-9.9-1.06-1.061-1.06 1.06z" fill="gold"/><path d="M83.26 32.996c.322-.878.49-1.857.49-2.912 0-4.293-2.781-7.344-7.371-7.344-4.618 0-7.398 3.051-7.398 7.344 0 1.055.167 2.034.489 2.912h4.548c-.465-.687-.718-1.664-.718-2.912 0-2.673 1.162-4.104 3.079-4.104 1.89 0 3.05 1.431 3.05 4.104 0 1.248-.252 2.225-.715 2.912h4.546zM59.692 17.232c2.565 0 3.537 1.539 3.888 3.645h4.86c-.459-4.482-3.267-7.614-8.532-7.614-6.102 0-9.369 4.266-9.369 10.07 0 5.833 3.267 10.099 9.37 10.099 5.291 0 8.1-3.132 8.531-7.668h-4.86c-.324 2.16-1.296 3.699-3.888 3.699-3.213 0-4.293-2.484-4.293-6.13 0-3.617 1.08-6.101 4.293-6.101zm38.398 6.426c0-3.16-1.81-4.914-4.482-4.914-2.457 0-3.807 1.16-4.536 2.43h-.054V18.93h-4.32V33h4.32v-7.992c0-1.917.945-2.754 2.592-2.754 1.43 0 2.16.702 2.16 2.78V33h4.32v-9.342zm.068-4.482h4.32l2.808 9.018h.054l2.808-9.018h4.32L107.689 33h-4.752l-4.779-13.824z" fill="#fff"/><path fill-rule="evenodd" clip-rule="evenodd" d="M121.292 29.22c-.366.524-1.053.972-2.239.972-1.539 0-2.97-1.026-2.97-2.97H120v-.002h6v.002h.019c0-5.022-2.403-8.478-7.128-8.478-4.401 0-7.128 3.132-7.128 7.344 0 4.32 2.781 7.344 7.371 7.344 3.568 0 5.696-1.66 6.547-4.212h-4.389zm-5.209-4.617c0-1.917 1.161-2.89 2.808-2.89 1.647 0 2.808.973 2.808 2.89h-5.616z" fill="#fff"/><path d="M134.702 18.933c.378 0 .702 0 1.188.108v3.78h-.054c-2.214-.405-4.563.81-4.563 3.753V33h-4.32V18.93h4.32v2.514h.054c.675-1.54 1.863-2.511 3.375-2.511z" fill="#fff"/><path fill-rule="evenodd" clip-rule="evenodd" d="M149.823 18.93h-4.32v1.623h-.054c-.54-.73-1.755-1.81-3.78-1.81-3.537 0-5.805 2.809-5.805 6.805 0 3.996 2.268 6.804 5.805 6.804 2.025 0 3.24-1.08 3.78-1.81h.054v.81c0 2.296-.648 3.322-2.592 3.322-1.512 0-2.187-.621-2.457-1.377h-4.32c.486 2.214 2.511 4.482 6.885 4.482 4.185 0 6.804-1.566 6.804-6.13V18.93zm-4.401 6.618c0 2.24-.864 3.564-2.619 3.564-1.755 0-2.619-1.323-2.619-3.564s.864-3.564 2.619-3.564c1.755 0 2.619 1.323 2.619 3.564zm12.643 4.644c1.186 0 1.873-.448 2.239-.972h4.389c-.851 2.553-2.979 4.212-6.547 4.212-4.59 0-7.371-3.024-7.371-7.344 0-4.212 2.727-7.344 7.128-7.344 4.725 0 7.128 3.456 7.128 8.478H165v-.002h-6v.002h-3.905c0 1.944 1.431 2.97 2.97 2.97zm-.162-8.478c-1.647 0-2.808.972-2.808 2.889h5.616c0-1.917-1.161-2.89-2.808-2.89z" fill="#fff"/><path d="M179.356 23.658c0-3.16-1.809-4.914-4.482-4.914-2.457 0-3.807 1.16-4.536 2.43h-.054V18.93h-4.32V33h4.32v-7.992c0-1.917.945-2.754 2.592-2.754 1.431 0 2.16.702 2.16 2.78V33h4.32v-9.342zm10.404.675c-.135-1.107-.729-2.35-2.457-2.35-1.782 0-2.781 1.513-2.781 4.105 0 2.592.972 4.104 2.781 4.104 1.728 0 2.322-1.161 2.457-2.403h4.239c-.216 3.267-2.7 5.643-6.669 5.643-4.374 0-7.128-3.024-7.128-7.344 0-4.293 2.754-7.344 7.02-7.344 4.023 0 6.426 2.376 6.777 5.589h-4.239z" fill="#fff"/><path fill-rule="evenodd" clip-rule="evenodd" d="M203.772 29.22c-.366.524-1.053.972-2.239.972-1.539 0-2.97-1.026-2.97-2.97H203v-.002h5.499c-.001-5.021-2.404-8.476-7.128-8.476-4.401 0-7.128 3.132-7.128 7.344 0 4.32 2.781 7.344 7.371 7.344 3.568 0 5.696-1.66 6.547-4.212h-4.389zm-5.209-4.617c0-1.917 1.161-2.89 2.808-2.89 1.647 0 2.808.973 2.808 2.89h-5.616z" fill="#fff"/></svg>