<svg width="57" height="88" viewBox="0 0 57 88" fill="none" xmlns="http://www.w3.org/2000/svg"><path d="M54.41 28.196c.254-.03.482-.146.657-.335a1.35 1.35 0 00.329-.736c.143-1.04.491-1.965.646-2.987.015-.117-.075-.274-.1-.412-.027-.138-.023-.196.015-.223.487-.38.327-1.096.425-1.681-.539-.376.05-.307.064-.462.116-.93.165-1.886.146-2.856-.046-.95-.098-1.89-.16-2.839a19.344 19.344 0 00-.751-3.852 20.724 20.724 0 00-1.825-4.288 30.607 30.607 0 00-1.922-2.922 16.43 16.43 0 00-2.425-2.786A6.624 6.624 0 0047.657.454a.903.903 0 00-.714-.084.806.806 0 00-.49.486 6.117 6.117 0 00-.865 1.982c-.05.168-.053.36-.008.552.044.192.135.376.26.528.124.153.278.267.441.33a.725.725 0 00.48.024c.075-.01.193-.057.212-.024.532.882 1.276 1.557 1.849 2.422.573.865 1.111 1.684 1.655 2.547a18.653 18.653 0 012.498 6.739c.123.675.088 1.346.155 2.026.033.334.09.706.532.622.061-.014.165.147.25.223a.792.792 0 00-.197.13c-.088.15-.313.315-.276.409.235.585-.114.899-.159 1.34-.018.47.035.957.156 1.438.13.444.123.897-.02 1.273-.053.09.023.22-.136.298a.782.782 0 00-.33.366c-.073.16-.104.35-.089.55a.61.61 0 00.23.595c.07.063.085.191.127.29a.865.865 0 00-.293-.148c-.203-.03-.315.32-.204.351.257.04.535.174.209.317-.444.19-.542.424-.409.963.03.198.023.393-.02.57a.624.624 0 01-.111.19c-.344-.308-.197-.053-.28.17a8.456 8.456 0 01-.873 2.112c-.248.24-.4.588-.431.988.003.255-.367.435-.531.64-.164.204-.228.391.063.607 0 0-.037.31-.117.345-.31.127-.676.158-.64.695 0 0-.18.09-.243.04-.264-.197-.269-.11-.242.181.012.11-.222.175-.321.293a12.492 12.492 0 01-2.394 2.108.86.86 0 01-.52.297c-.334-.001-.271-.343-.4-.526a.816.816 0 00-.466-.305c-.205-.038-.337-.072-.399-.357a7.215 7.215 0 00-.182-.545l-.325.205a1.174 1.174 0 00-.305-.465c-.055-.049-.025-.022.032-.055l.035.161a.857.857 0 01-.164-.017s-.02-.07.092-.093c.111-.022.137-.236.077-.29-.524-.401-.95-1.074-1.618-1.19-.153-.024-.309-.278-.463-.416-.83-.89-1.851-1.233-2.795-1.812a12.18 12.18 0 00-3.462-1.37c-.284-.072-.644-.716-.903-.154-.333-.092-.653-.18-1.006-.29a7.144 7.144 0 00-1.023-.3 6.29 6.29 0 00-1.04.07c-.352.019-.709.02-1.053.078-.345.058-.757.207-1.157.23-.4.023-.56.521-1.05.502-.32-.01-.513.595-.848.768a3.86 3.86 0 00-1.114.742c-.143.155-.297.185-.234.493.063.309-.152.261-.317.311-.166.05-.267.212 0 .482l-.035-.031a.858.858 0 01.14-.097s.074.067.094.138a.337.337 0 01-.19-.001c-.419.005-.377.44-.507.69a4.796 4.796 0 00-.458 1.882c-.027.28-.25.624.134.968a.715.715 0 01-.107.392c-.208.28-.267.524.148.775.303.195-.089.478.256.863.331.41.682.799 1.05 1.164l2.137 1.915a.954.954 0 01.445-.002c.152.034.304.103.445.202.141.099.27.226.377.374.108.149.193.315.25.49l.18.16a.653.653 0 00.114-.195c.073-.198.122-.41.147-.632.02-.035-.204-.183-.334-.246.123-.302.61-.293.907.004a.976.976 0 00.135.12l.194.175c-.05.085-.114.195-.198.197-.084 0-.193-.112-.29-.139a.152.152 0 00-.09.026.167.167 0 00-.06.076c-.012.097-.01.251.043.315.147.155.304.295.468.42.215.192.48-.29.69.235.21.525.574.08.842.283.27.203.502.076.75-.091.104-.06.376.214.583.3.624.232.627.227.562-.496.001-.095.014-.186.037-.272.066.037.13.079.192.126.09.083.173.175.248.276.363.524.486.611.76.27.216-.266.336-.212.6.01.08.054.166.087.251.095a.404.404 0 00.237-.047c.18-.19.287-.193.533-.004.15.134.55.174.57.1.151-.545.583-.142.875-.201.73-.186 1.47-.363 2.195-.568.388-.05.75-.19 1.065-.412.341-.351.555-.015.655.243.26.516.49 1.045.692 1.584.16.591.406 1.165.728 1.692.288.456.25 1.186.288 1.785.038.6-.084 1.056-.043 1.597.005.425-.01.845-.043 1.26a3.22 3.22 0 01-.16 1.109c-.085.237.14.683.226 1.043.017.083.03.166.038.248-.552-.029-.347.674-.614.977-.29.283-.458.702-.474 1.18.064.606-.516.743-.38 1.384.056.28-.281.573-.44.859-.24.411-.449.85-.715 1.23-.267.38-.323.88-.83 1.035-.377.113-.313.942-.88.938-.35.709-1.004 1.063-1.454 1.629-.719.883-1.722 1.343-2.541 2.075a16.128 16.128 0 01-2.836 1.735c-.758.443-1.683.614-2.295 1.34-1.018.058-1.837.645-2.752.94-1.048.343-2.113.649-3.158.987-.532.172-1.099.183-1.627.374a24.38 24.38 0 01-3.623.784c-.762.15-1.56.182-2.311.364-.75.183-1.656.242-2.445.49-.655.175-1.43.114-2.107.34a5.686 5.686 0 01-1.79.304c-.596.02-1.181.09-1.752.21-.596.099-1.23.095-1.809.256a5.512 5.512 0 00-1.582.453c-.023.04-.11-.007-.164-.017a.547.547 0 01.029-.22l.493-.847c.168-.222.277-.499.319-.808.004-.255.371-.43.525-.643.155-.213.293-.502.441-.758l.935-1.606c.148-.3.314-.585.496-.854.132-.226.428-.304.564-.526.136-.221.129-.755.32-.836.3-.112.292-.502.543-.582.337-.149-.052-.81.436-.854.23-.03.324-.557.517-.797.533-.591.501-1.513.725-2.275.035-.06-.039-.234-.107-.31-.397-.478-.622-.482-1.084-.209a3.204 3.204 0 00-1.197 1.172 6.596 6.596 0 01-.843.994c-.282.328-.321.942-.856.99-.048.002-.07.12-.108.185-.758 1.146-1.514 2.302-2.29 3.44-.272.39-.626.698-.903 1.084a6.424 6.424 0 01-.79 1.292c-.568.469-.792 1.284-1.304 1.734-.863.754-1.295 1.94-1.925 2.918-.33.567-.698 1.2.105 1.981.09.08.06.328.126.487.076.138.162.27.258.391.01-.124.027-.246.053-.365 0 0 .16-.001.189.04.086.139.126.304.212.443.21.341.669.4.758.885-.274-.245-.574-.446-.86-.657-.025-.022-.097-.017-.097-.003-.001.015-.03.157-.004.189.497.552 1.003 1.09 1.495 1.638.381.426.734.887 1.135 1.292.459.343.89.744 1.282 1.196.529.849 1.326 1.25 1.886 1.967 1.04 1.338 2.317 2.269 3.48 3.396.135.12.171.436.298.504.127.068.267-.12.416-.154.017-.03.12.107.18.16.348.313.334.14.257-.196-.044-.185-.25-.613.222-.251.105.093.294.003.398.097.374.335.57.441.518-.239-.025-.373.307-.358.587.007.28.366.381.426.593-.056a.184.184 0 01.111-.099c.236-.08.244-.094.117-.2a.973.973 0 01-.305-.294 1.082 1.082 0 01-.167-.406c-.449.133-.285-.331-.4-.525a1.34 1.34 0 00-.194-.305c-1.079-1.127-2.045-2.384-3.157-3.48a42.658 42.658 0 01-2.632-2.628 24.215 24.215 0 00-1.993-2.032c-.05-.044-.067-.144-.1-.219a.584.584 0 01.204-.024c.131.034.304.037.393.131.411.453 1.027.646 1.246 1.362.042.137.244.22.364.326a30.503 30.503 0 012.51 2.588c.532.675 1.205 1.134 1.693 1.793.675.8 1.401 1.54 2.168 2.212.319.434.665.842 1.034 1.218.362.278.253.112.36-.175.194-.543-.206-.948-.367-1.245a10.512 10.512 0 00-1.286-1.49c-.438-.484-.87-.978-1.316-1.462-.446-.484-.989-.697-1.221-1.378-.023-.066-.125-.112-.184-.166a642.625 642.625 0 01-3.375-3.316 3.096 3.096 0 01-.422-.577c-.052-.093-.156-.423.092-.276.679.41 1.039-.353 1.674-.18.28.076.593-.095.926-.056.133.02.25-.181.4-.322l-.027.046a1.118 1.118 0 01-.11-.19s.044-.075.103-.084a.622.622 0 01.052.26c.79.191 1.562.076 2.191-.326l-.023.04a.822.822 0 01-.113-.185s.044-.075.102-.084a.614.614 0 01.034.229c.372.142.755.226.98-.199a.224.224 0 01.112-.07.254.254 0 01.138.004c.326.085.65.093.952.022.302-.071.576-.219.803-.434.032-.055.123-.133.146-.12.244.218.495-.084.607-.014.681.404 1.08-.23 1.668-.185a6.219 6.219 0 001.617-.344c.327-.066.655-.123.98-.199.324-.076.558-.164.843-.237.388-.095.893-.039 1.127-.31.234-.272.448.103.64-.007.194-.108.41-.174.636-.194a3.666 3.666 0 001.582-.491 5.866 5.866 0 011.677-.474c.33-.04.642-.138.928-.291a2.452 2.452 0 011.384-.44 6.777 6.777 0 001.75-.546 24.211 24.211 0 002.918-1.408c.645-.34 1.275-.706 1.942-.994a8.62 8.62 0 001.76-1.125c.311-.233.722-.17 1.016-.533a7.872 7.872 0 011.672-1.258c.544-.376 1.058-.816 1.603-1.206a7.579 7.579 0 001.045-1.224c.174-.195.4-.322.574-.517a18.63 18.63 0 002.34-2.98c.368-.633 1.059-1 1.251-1.774.238-.652.51-1.28.815-1.882.241-.623.403-1.319.634-1.937.458-1.35.718-2.817.772-4.349a27.948 27.948 0 00-.15-4.106 5.608 5.608 0 00-.25-.989c-.036-.108-.155-.215-.16-.311a9.036 9.036 0 00-.807-3.458 60.725 60.725 0 01-.663-1.466.656.656 0 01-.035-.213c0-.07.014-.137.039-.196.331-.613.848-1.044 1.473-1.23.168-.056.27-.217-.077-.467-.06-.053-.03-.027.032-.055l.038.156a.508.508 0 01-.164-.017s-.015-.067.094-.084a10.93 10.93 0 001.424-.755.215.215 0 00.073-.075.28.28 0 00.035-.11c-.024-.22-.068-.443-.105-.667.177.021.334.3.528-.008.916-1.47 2-2.721 2.767-4.302.106-.18.274-.404.235-.599-.166-.912.217-1.271.747-1.622.284-.188-.058-.395-.34-.587-.055-.05-.025-.023.032-.055l.035.16a.856.856 0 01-.164-.017s-.011-.032.095-.06zm-7.442 12.53l-.153.107a.953.953 0 01.007-.352s-.121.014-.13-.01a5.595 5.595 0 01-.294-.668c-.034-.031.036-.151.1-.17.064-.02.142-.049.19-.014a.878.878 0 01.225.49.72.72 0 01-.014.256.543.543 0 01-.1.21l.189.17a.585.585 0 01.136-.092s.075.067.097.133a.273.273 0 01-.127-.001.36.36 0 01-.126-.059zm8.09-19.779l-.128-.29c.047-.003.117-.032.134-.009.076.114.147.23.213.351-.062-.01-.127-.03-.14-.5-.15-.004-.21.02-.236-.013a2.23 2.23 0 01-.22-.259c.026-.045.07-.12.1-.093.104.093.195.198.276.813zM43.075 37.114l-.047.08a.814.814 0 01-.112-.185s.044-.075.097-.089c.053-.013.04.128-.136.833a2.18 2.18 0 01.049-.383 1.03 1.03 0 01.102-.176c.033.099.115.218.1.296-.015.078-.12.129-.053-.376zm-8.702 1.997c.18.069.265.092.341.13.061.047.12.099.175.156-.075.025-.169.094-.235.065-.066-.03-.137-.169.383.122l-.096-.277c.063.01.145-.015.185.02.07.087.133.181.185.281-.08-.004-.144 0-.938-.497zm-2.4-5.5l.078.361.269.242c.314-.254.667-.028 1.022.053a20.8 20.8 0 012.458 1.09c.267.1.555.1.783.411.08.072.08.072.117-.2a.23.23 0 01.053-.105.185.185 0 01.093-.055c.227-.026.407.03.381-.422-.025-.45.413.126.576-.064.047-.08.096-.334.26-.042.099.18.182.362.271.549-.055.004-.126.047-.164.02-.556-.437-.382.345-.63.42.06.054.116.166.184.166.174.026.37-.05.51.046.298.205.559.5.837.75.28.25.61.256.7.466.193.449.629.13.768.568.042.136.188.314.157.393-.092.276-.265.09-.419-.048l-.747-.67a1.56 1.56 0 00-.295-.143c.037.105.09.204.155.293l.653.585c.075.092.14.195.194.304l-.267.173.216.293a.525.525 0 01-.238.031c-.166-.041-.327-.102-.495-.153a2.306 2.306 0 00-.555-.048c-1.207.224-2.474-.125-3.728-.287a9.92 9.92 0 01-2.774-.937c-1.24-.56-2.414-1.398-3.449-2.46-.21-.187-.451-.343-.477-.703-.01-.114-.11-.242-.17-.358.084.075.204.183.287.143.395-.105.765-.3 1.168-.366a7.01 7.01 0 011.107.077c.396.01.767-.016 1.19.012a7.706 7.706 0 01-.12-.771c.293-.502.456-.523.726-.114.03.027-.027.137-.047.21-.403-.361-.44.027-.596.23-.02.035-.087.02-.137.015a.292.292 0 01-.03-.119c.035-.137.075-.231.125.165zm-3.086 6.737a5.408 5.408 0 01-.453-.407c-.04-.035-.024-.205.015-.246a.325.325 0 01.23-.084c.207.397.483.748.805 1.027 0 0 .021.08.027.123.005.043-.13.029-.173-.002-.15-.134-.304-.272-1.807-1.322l-.643-.576c-.05-.045-.07-.14-.105-.21.058-.009.13-.043.17-.007l1.285 1.152c.03.027.028.11.04.166-.065-.005-.147.005-.2-.034-.164-.186-.348-.351.81.42zm11.606-3.12l-.842-.755a2.254 2.254 0 01-.255-.382c.137-.021.278-.028.42-.02.167.029.334.079.498.148 0 0 .055.14.035.161-.214.251-.035.412.17.595l1.025.92c.05.045.06.145.084.22-.067-.014-.15-.004-.199-.048-.314-.282-.622-.558-.938-1.697l-.084-.076a.54.54 0 01.144-.091s.07.062.092.128c.022.066-.096.021-.15.896zm3.896-1.487c.125.227.263.472.384.719.06.13.153.35.121.391a.37.37 0 01-.16.105.401.401 0 01-.195.012 1.06 1.06 0 01-.545-.367c-.546-1.001-1.424-1.46-2.17-2.197-.218-.197-.682-.246-.742-.43-.217-.668-.686-.683-1.08-.969a17.389 17.389 0 00-2.906-1.727c-.055-.049-.106-.194-.166-.301.108-.041.259-.158.314-.109.191.217.41.394.646.522.235.128.48.205.723.225a.504.504 0 01.203.076.665.665 0 01.173.162c.285.37.67.31.98.558.09.08.218.08.313.151.096.07 1.352.945 1.448 1.001.239.137.539-.014.724.488.115.31.558.5.73.816.053.134.132.256.231.353a.811.811 0 00.332.205c.223.088.443.198.657.33l-.015-.014zm-11.904 2.89c.106.157.198.285.292.423a1.32 1.32 0 01-.476.024 7.449 7.449 0 01-.684-.308 5.04 5.04 0 01-1.836-1.066 1.047 1.047 0 00-.464-.348c-.543-.043-.672-.342-.583-.873.038-.066-.112-.238-.178-.359.1.04.199.094.292.163l1.02.915c.34.25.692.469 1.053.653.546.3 1.047.52 1.564.777zm-3.88-.56c.459.41.528.473.393.627-.377.388-.143-.457-.413-.37 0 0-.06-.054-.092-.037-.342.105-.364-.273-.325-.406.084-.314.23.06.351.1.12.04.057.059.087.086zM3.25 78.663c-.084-.22-.482-.226-.495-.635.21.188.448.325.66.493.13.104.254.216.374.335 0 0 .003.125-.008.184-.012.058-.072.02-.097-.003a5.446 5.446 0 01-.437-.369l.003-.005zm44.16-76.95c-.065-.096-.107-.141-.103-.16.004-.02.061-.106.073-.126.13-.012.263-.006.397.02a.733.733 0 01.15.172c-.035.06-.085.146-.173.128a1.35 1.35 0 01-.344-.034zM32.46 40.54c-.202-.043-.397-.073-.593-.127a.496.496 0 01-.006-.211c.032-.055.094-.16.127-.139.16.09.316.2.463.324 0 0 .006.12.01.153zm20.922-16.322l.306-.2c.038.157.14.41.09.457-.05.047-.276.072-.42.097l.024-.354zM3.777 77.939l.13.36a.913.913 0 01-.28-.167 1.643 1.643 0 01-.192-.348c.117.06.211.106.342.154zm25.642-38.802l-.18-.291.432-.102c.005.08.033.19.005.225a.915.915 0 01-.237.186l-.02-.018zm6.942-8.09c-.11-.03-.22-.074-.325-.131-.04-.036-.058-.136-.09-.21l.46.03-.045.31zm-4.59 10.496a8.122 8.122 0 00-.17-.296l.412-.12c.003.071.03.18-.002.211a1.17 1.17 0 01-.24.205zm13.31-.736l-.18-.291.43-.102c.001.077.037.185.009.22-.08.068-.167.126-.26.173zm7.611-11.782c.075.014.178.007.202.044.058.124.097.255.116.386 0 0-.136.039-.208.058l-.11-.488zm.796.325c-.095-.162-.136-.222-.179-.291l.43-.103c.01.077.037.186.009.221a1.133 1.133 0 01-.304.132l.044.04zm-22.973 3.84c-.039-.103-.104-.2-.085-.22.06-.073.126-.14.198-.197.03.066.094.153.079.178-.069.069-.144.13-.226.18l.034.06zm4.984 1.293c.047.088.098.195.145.298-.063-.01-.148.005-.19-.04a1.578 1.578 0 01-.184-.295l.229.037zm15.93-.227l-.242.157a.718.718 0 01-.026-.268c.026-.045.096-.074.15-.102l.119.213zm-3.711 20.252l.2.073c-.03.05.005.173-.03.209a.634.634 0 01-.217.058l.047-.34zM25.23 34.234l.027.123a.665.665 0 01-.16-.051s-.016-.076-.029-.118l.162.046zM2.476 76.786l-.083-.182s.085-.015.1-.002c.035.054.065.112.09.172l-.107.012zm25.095-40.828l-.047-.142a.479.479 0 01.16.052s.019.07.024.114l-.137-.024zm5.675-2.397l-.027-.123c.054.01.107.027.16.051 0 0 .016.076.03.119l-.163-.047zm2.33-3.197c.024.023.084-.015.096.003a.993.993 0 01.093.167c-.015.025-.083.025-.095.007a.897.897 0 01-.095-.177zm1.073 4.225l-.015-.105c.054.01.107.027.16.051l.024.114c.009.038-.13-.025-.17-.06zm-4.064 7.233l-.11.008a1.23 1.23 0 01.017-.175s.062-.014.093-.016v.183zm7.627-6.833l.024.128a.669.669 0 01-.16-.051s-.016-.076-.029-.119l.165.042zm-2.692 7.233l-.103.007a.825.825 0 01.014-.179l.094-.006-.005.178zm5.866-4.418s-.038-.103-.025-.113a.643.643 0 01.136-.077s.03.104.022.119a.491.491 0 01-.133.072zm-.643 3.243l-.138.067s-.036-.108-.022-.119a.352.352 0 01.133-.072l.027.124zm.301.706l-.024-.129c.053.012.106.03.157.057l.032.113-.165-.041zm.322.579l-.083-.182s.085-.016.1-.002c.034.055.064.112.089.172l-.106.012zm11.197-18.413l-.024-.128c.053.011.106.03.157.056 0 0 .02.07.028.109l-.16-.037zm-2.248 4.255l.135-.062s.038.103.025.114a.486.486 0 01-.133.071l-.027-.123zm.649-.281l-.103.007a.819.819 0 01.013-.18s.064-.004.098-.01l-.008.183zm1.305-1.358l-.084-.182s.085-.016.1-.002c.035.054.065.112.09.172l-.106.012zm-2.188 5.233l-.07-.207c.026.022.086-.015.098.003.038.05.069.107.092.167l-.12.037zm-2.126 4.136l-.081-.172s.082-.026.094-.007c.038.055.07.114.095.176l-.108.003zm-2.198 4.69s-.033-.099-.02-.11a.343.343 0 01.128-.076s.039.103.025.114a.486.486 0 01-.124.057l-.009.015zm-1.581 2.47s.085-.016.1-.002c.035.054.065.112.09.172 0 0-.08.02-.096.006a1.337 1.337 0 01-.085-.191l-.009.015z" fill="#00F"/><path d="M28.554 41.248l.299.099a6.18 6.18 0 00-.312-.44c-.055-.05-.147-.048-.224-.071l.237.412zm-.98-.62l.27.082c-.024-.075-.044-.185-.087-.215a1.043 1.043 0 00-.286-.12l.103.253zM38.62 36.93c.08.096.164.187.252.271.025.023.089-.035.14-.057a2.48 2.48 0 00-.212-.275c-.022-.027-.093.031-.18.061zm.899 1.882l-.068-.183c-.023.04-.101.07-.097.09.031.064.069.127.112.184l.053-.09z" fill="#00F"/></svg>