<svg width="168" height="48" viewBox="0 0 168 48" fill="none" xmlns="http://www.w3.org/2000/svg"><g clip-path="url(#clip0_1988_1819)" fill="gold"><path d="M25.089 5.054L21.156 4 17.84 16.37 14.85 5.202l-3.933 1.054 3.233 12.066-8.053-8.053-2.879 2.88 8.833 8.832-11-2.947-1.054 3.933 12.019 3.22a8.144 8.144 0 1115.87-.011l10.922 2.926 1.053-3.933-12.066-3.233 11-2.948-1.053-3.932-12.066 3.232 8.052-8.052-2.879-2.88-8.71 8.711 2.95-11.013z"/><path d="M27.872 26.221a8.127 8.127 0 01-2.026 3.733l7.913 7.913 2.88-2.88-8.767-8.766zm-2.105 3.816a8.137 8.137 0 01-3.64 2.151l2.88 10.746 3.933-1.054-3.174-11.843zm-3.787 2.19a8.157 8.157 0 01-2.033.256 8.15 8.15 0 01-2.172-.293l-2.882 10.756L18.826 44l3.155-11.773zm-4.344-.077a8.142 8.142 0 01-3.575-2.183L6.128 37.9l2.88 2.88 8.628-8.63zm-3.64-2.253a8.125 8.125 0 01-1.976-3.686L1.063 29.147l1.054 3.933 11.88-3.183z"/></g><path d="M50 33V14.478h3.699l7.452 9.99c.108.126.243.306.405.54.162.216.315.432.459.648.144.216.243.387.297.513h.135V14.478h3.807V33h-3.699l-7.614-10.233a22.113 22.113 0 01-.999-1.539h-.135V33H50zm18.951-16.281v-3.24h3.754v3.24H68.95zm0 16.281V18.798h3.754V33H68.95zm12.572.324c-1.566 0-2.88-.261-3.942-.783-1.062-.54-1.863-1.359-2.403-2.457-.54-1.098-.81-2.493-.81-4.185 0-1.71.27-3.105.81-4.185.54-1.098 1.332-1.908 2.376-2.43 1.062-.54 2.358-.81 3.888-.81 1.44 0 2.655.261 3.645.783.99.504 1.737 1.296 2.24 2.376.505 1.062.757 2.439.757 4.131v.972h-9.91c.037.828.163 1.53.379 2.106.234.576.585 1.008 1.053 1.296.486.27 1.125.405 1.917.405a3.85 3.85 0 001.16-.162c.36-.108.667-.27.919-.486.252-.216.45-.486.594-.81a2.7 2.7 0 00.216-1.107h3.672c0 .9-.162 1.683-.486 2.349a4.709 4.709 0 01-1.35 1.674c-.576.432-1.27.765-2.08.999-.791.216-1.673.324-2.645.324zm-3.294-8.964h5.994c0-.54-.072-1.008-.216-1.404a2.533 2.533 0 00-.54-.972 1.963 1.963 0 00-.864-.54 3.037 3.037 0 00-1.107-.189c-.684 0-1.26.117-1.728.351a2.32 2.32 0 00-1.053 1.026c-.234.45-.396 1.026-.486 1.728zm15.767 8.964c-.9 0-1.629-.162-2.187-.486-.558-.324-.963-.756-1.215-1.296a4.409 4.409 0 01-.378-1.836v-8.019h-1.755v-2.889h1.89l.702-4.05h2.916v4.05h2.592v2.889H93.97v7.398c0 .432.1.765.297.999.198.216.522.324.972.324h1.323v2.484a5.78 5.78 0 01-.756.189 6.949 6.949 0 01-.918.162 5.454 5.454 0 01-.89.081zM96.799 33v-1.593l6.939-9.72h-6.507v-2.889h11.934v1.539l-6.966 9.747h7.236V33H96.799zm19.779.324c-.99 0-1.881-.108-2.673-.324-.792-.216-1.467-.513-2.025-.891a4.353 4.353 0 01-1.296-1.404c-.288-.54-.432-1.152-.432-1.836v-.216c0-.072.009-.126.027-.162h3.618v.216c.018.45.162.819.432 1.107.27.27.621.468 1.053.594.45.126.918.189 1.404.189.432 0 .846-.036 1.242-.108.414-.09.756-.243 1.026-.459.288-.216.432-.495.432-.837 0-.432-.18-.765-.54-.999-.342-.234-.801-.423-1.377-.567-.558-.144-1.17-.306-1.836-.486a34.555 34.555 0 01-1.836-.486 7.894 7.894 0 01-1.674-.756 3.744 3.744 0 01-1.188-1.188c-.306-.504-.459-1.134-.459-1.89 0-.738.162-1.377.486-1.917a4.03 4.03 0 011.323-1.377 6.18 6.18 0 011.998-.783c.774-.18 1.602-.27 2.484-.27.828 0 1.602.09 2.322.27.72.162 1.35.414 1.89.756.54.324.963.738 1.269 1.242.306.486.459 1.035.459 1.647v.351c0 .108-.009.18-.027.216h-3.591v-.216c0-.324-.099-.594-.297-.81-.198-.234-.486-.414-.864-.54-.36-.126-.801-.189-1.323-.189-.36 0-.693.027-.999.081-.288.054-.54.135-.756.243a1.467 1.467 0 00-.513.405.875.875 0 00-.162.54c0 .306.126.558.378.756.27.18.621.333 1.053.459.432.126.909.261 1.431.405.648.18 1.323.36 2.025.54.72.162 1.386.387 1.998.675a3.702 3.702 0 011.485 1.242c.378.522.567 1.233.567 2.133 0 .864-.171 1.593-.513 2.187a3.751 3.751 0 01-1.377 1.431c-.594.36-1.287.621-2.079.783-.792.162-1.647.243-2.565.243zm14.409 0c-1.512 0-2.781-.261-3.807-.783-1.026-.54-1.809-1.359-2.349-2.457-.522-1.116-.783-2.511-.783-4.185 0-1.71.261-3.105.783-4.185.54-1.098 1.323-1.917 2.349-2.457 1.044-.54 2.313-.81 3.807-.81.972 0 1.845.117 2.619.351a5.596 5.596 0 012.052 1.08 4.526 4.526 0 011.296 1.809c.306.702.459 1.539.459 2.511h-3.753c0-.648-.099-1.179-.297-1.593a2.03 2.03 0 00-.918-.945c-.396-.216-.9-.324-1.512-.324-.72 0-1.305.162-1.755.486-.45.324-.783.801-.999 1.431-.216.63-.324 1.413-.324 2.349v.621c0 .918.108 1.692.324 2.322.234.63.585 1.107 1.053 1.431.468.306 1.08.459 1.836.459.612 0 1.116-.108 1.512-.324.414-.216.729-.54.945-.972.216-.432.324-.954.324-1.566h3.564c0 .918-.153 1.737-.459 2.457a4.526 4.526 0 01-1.296 1.809c-.558.486-1.233.855-2.025 1.107-.792.252-1.674.378-2.646.378zm8.16-.324V13.479h3.753v6.885h.189a4.642 4.642 0 011.08-.972 5.505 5.505 0 011.431-.675 6.082 6.082 0 011.755-.243c.936 0 1.755.171 2.457.513.702.342 1.242.882 1.62 1.62.396.738.594 1.701.594 2.889V33h-3.753v-8.91c0-.45-.054-.828-.162-1.134a1.816 1.816 0 00-.486-.783 1.622 1.622 0 00-.756-.459 3.631 3.631 0 00-1.026-.135c-.558 0-1.062.135-1.512.405-.45.27-.801.639-1.053 1.107-.252.468-.378 1.008-.378 1.62V33h-3.753zm21.615.324c-1.566 0-2.88-.261-3.942-.783-1.062-.54-1.863-1.359-2.403-2.457-.54-1.098-.81-2.493-.81-4.185 0-1.71.27-3.105.81-4.185.54-1.098 1.332-1.908 2.376-2.43 1.062-.54 2.358-.81 3.888-.81 1.44 0 2.655.261 3.645.783.99.504 1.737 1.296 2.241 2.376.504 1.062.756 2.439.756 4.131v.972h-9.909c.036.828.162 1.53.378 2.106.234.576.585 1.008 1.053 1.296.486.27 1.125.405 1.917.405a3.85 3.85 0 001.161-.162c.36-.108.666-.27.918-.486.252-.216.45-.486.594-.81a2.7 2.7 0 00.216-1.107h3.672c0 .9-.162 1.683-.486 2.349a4.709 4.709 0 01-1.35 1.674c-.576.432-1.269.765-2.079.999-.792.216-1.674.324-2.646.324zm-3.294-8.964h5.994c0-.54-.072-1.008-.216-1.404a2.533 2.533 0 00-.54-.972 1.963 1.963 0 00-.864-.54 3.037 3.037 0 00-1.107-.189c-.684 0-1.26.117-1.728.351a2.32 2.32 0 00-1.053 1.026c-.234.45-.396 1.026-.486 1.728z" fill="#fff"/><defs><clipPath id="clip0_1988_1819"><path fill="#fff" d="M0 0h40v48H0z"/></clipPath></defs></svg>