<svg width="178" height="48" viewBox="0 0 178 48" fill="none" xmlns="http://www.w3.org/2000/svg"><path d="M19.6 4.952c-3.466 0-6.266 2.766-6.266 6.19 0 3.399 2.8 6.165 6.24 6.191a1.555 1.555 0 01-1.52-1.554c0-.843.693-1.554 1.573-1.554h15.68c2.587 0 4.694-2.081 4.694-4.637 0-2.555-2.107-4.636-4.694-4.636H19.601zm-7.618 12.382c-3.467 0-6.267 2.765-6.267 6.19 0 3.398 2.8 6.164 6.24 6.19a1.555 1.555 0 01-1.52-1.554c0-.843.693-1.554 1.573-1.554h15.68c2.587 0 4.694-2.081 4.694-4.636s-2.107-4.636-4.694-4.636H11.982z" fill="#155EEF"/><path d="M6.714 29.714C3 29.714 0 32.694 0 36.381c0 3.66 3 6.638 6.686 6.667a1.67 1.67 0 01-1.629-1.674c0-.908.743-1.674 1.686-1.674h16.8c2.771 0 5.028-2.24 5.028-4.993 0-2.752-2.257-4.993-5.028-4.993H6.714z" fill="#155EEF"/><path fill-rule="evenodd" clip-rule="evenodd" d="M83.347 12.8c-1.235 0-2.171.863-2.171 2.09 0 1.248.93 2.144 2.17 2.144 1.238 0 2.199-.893 2.199-2.144 0-1.23-.967-2.09-2.198-2.09z" fill="#6B7280"/><path fill-rule="evenodd" clip-rule="evenodd" d="M83.347 12.8c-1.235 0-2.171.863-2.171 2.09 0 1.248.93 2.144 2.17 2.144 1.238 0 2.199-.893 2.199-2.144 0-1.23-.967-2.09-2.198-2.09z" fill="#000"/><path fill-rule="evenodd" clip-rule="evenodd" d="M129.836 12.8c-1.235 0-2.171.863-2.171 2.09 0 1.248.931 2.144 2.171 2.144 1.237 0 2.198-.893 2.198-2.144 0-1.23-.966-2.09-2.198-2.09z" fill="#6B7280"/><path fill-rule="evenodd" clip-rule="evenodd" d="M129.836 12.8c-1.235 0-2.171.863-2.171 2.09 0 1.248.931 2.144 2.171 2.144 1.237 0 2.198-.893 2.198-2.144 0-1.23-.966-2.09-2.198-2.09z" fill="#000"/><path d="M85.425 18.69H81.32V33h4.104V18.69z" fill="#6B7280"/><path d="M85.425 18.69H81.32V33h4.104V18.69z" fill="#000"/><path d="M50 13.83h13.365v3.483h-9.234v4.374h8.91v3.402h-8.91v4.428h9.45V33H50V13.83z" fill="#6B7280"/><path d="M50 13.83h13.365v3.483h-9.234v4.374h8.91v3.402h-8.91v4.428h9.45V33H50V13.83z" fill="#000"/><path fill-rule="evenodd" clip-rule="evenodd" d="M65.473 37.05V18.69h3.915l.08 2.106c.784-1.566 2.269-2.43 4.267-2.43 4.05 0 6.102 3.267 6.102 7.479s-2.052 7.479-6.102 7.479c-1.863 0-3.321-.81-4.158-2.322v6.048h-4.104zm3.834-11.205c0 2.349.999 4.374 3.159 4.374 2.187 0 3.186-2.025 3.186-4.374 0-2.322-1.053-4.374-3.186-4.374-2.16 0-3.16 2.052-3.16 4.374z" fill="#6B7280"/><path fill-rule="evenodd" clip-rule="evenodd" d="M65.473 37.05V18.69h3.915l.08 2.106c.784-1.566 2.269-2.43 4.267-2.43 4.05 0 6.102 3.267 6.102 7.479s-2.052 7.479-6.102 7.479c-1.863 0-3.321-.81-4.158-2.322v6.048h-4.104zm3.834-11.205c0 2.349.999 4.374 3.159 4.374 2.187 0 3.186-2.025 3.186-4.374 0-2.322-1.053-4.374-3.186-4.374-2.16 0-3.16 2.052-3.16 4.374z" fill="#000"/><path d="M97.205 24.17c-.243-1.727-1.377-2.672-2.808-2.672-2.025 0-3.159 1.593-3.159 4.347 0 2.754 1.134 4.347 3.16 4.347 1.511 0 2.618-.945 2.861-2.808l4.212.162c-.378 3.564-3.267 5.778-7.074 5.778-4.428 0-7.344-2.943-7.344-7.48 0-4.535 2.916-7.478 7.344-7.478 3.7 0 6.615 2.133 6.993 5.616l-4.185.189z" fill="#6B7280"/><path d="M97.205 24.17c-.243-1.727-1.377-2.672-2.808-2.672-2.025 0-3.159 1.593-3.159 4.347 0 2.754 1.134 4.347 3.16 4.347 1.511 0 2.618-.945 2.861-2.808l4.212.162c-.378 3.564-3.267 5.778-7.074 5.778-4.428 0-7.344-2.943-7.344-7.48 0-4.535 2.916-7.478 7.344-7.478 3.7 0 6.615 2.133 6.993 5.616l-4.185.189z" fill="#000"/><path d="M111.781 33h3.699V18.69h-4.077v7.857c0 2.268-.891 3.537-2.565 3.537-1.647 0-2.133-1.27-2.133-3.537V18.69h-4.104v9.207c0 3.32 1.809 5.427 4.887 5.427 1.836 0 3.429-.702 4.212-2.565l.081 2.24z" fill="#6B7280"/><path d="M111.781 33h3.699V18.69h-4.077v7.857c0 2.268-.891 3.537-2.565 3.537-1.647 0-2.133-1.27-2.133-3.537V18.69h-4.104v9.207c0 3.32 1.809 5.427 4.887 5.427 1.836 0 3.429-.702 4.212-2.565l.081 2.24z" fill="#000"/><path d="M117.948 18.69h3.888l.081 2.862c.567-1.917 1.647-2.862 3.456-2.862h1.296v3.05h-1.35c-2.349 0-3.267 1.08-3.267 3.295V33h-4.104V18.69z" fill="#6B7280"/><path d="M117.948 18.69h3.888l.081 2.862c.567-1.917 1.647-2.862 3.456-2.862h1.296v3.05h-1.35c-2.349 0-3.267 1.08-3.267 3.295V33h-4.104V18.69z" fill="#000"/><path d="M131.914 18.69h-4.104V33h4.104V18.69z" fill="#6B7280"/><path d="M131.914 18.69h-4.104V33h4.104V18.69z" fill="#000"/><path fill-rule="evenodd" clip-rule="evenodd" d="M140.887 33.324c-4.428 0-7.344-2.943-7.344-7.48 0-4.535 2.916-7.478 7.344-7.478 4.428 0 7.344 2.943 7.344 7.479s-2.916 7.479-7.344 7.479zm-3.159-7.48c0 2.755 1.134 4.348 3.159 4.348s3.159-1.593 3.159-4.347c0-2.754-1.134-4.347-3.159-4.347s-3.159 1.593-3.159 4.347z" fill="#6B7280"/><path fill-rule="evenodd" clip-rule="evenodd" d="M140.887 33.324c-4.428 0-7.344-2.943-7.344-7.48 0-4.535 2.916-7.478 7.344-7.478 4.428 0 7.344 2.943 7.344 7.479s-2.916 7.479-7.344 7.479zm-3.159-7.48c0 2.755 1.134 4.348 3.159 4.348s3.159-1.593 3.159-4.347c0-2.754-1.134-4.347-3.159-4.347s-3.159 1.593-3.159 4.347z" fill="#000"/><path d="M158.824 33h3.699V18.69h-4.077v7.857c0 2.268-.891 3.537-2.565 3.537-1.647 0-2.133-1.27-2.133-3.537V18.69h-4.104v9.207c0 3.32 1.809 5.427 4.887 5.427 1.836 0 3.429-.702 4.212-2.565l.081 2.24z" fill="#6B7280"/><path d="M158.824 33h3.699V18.69h-4.077v7.857c0 2.268-.891 3.537-2.565 3.537-1.647 0-2.133-1.27-2.133-3.537V18.69h-4.104v9.207c0 3.32 1.809 5.427 4.887 5.427 1.836 0 3.429-.702 4.212-2.565l.081 2.24z" fill="#000"/><path d="M173.523 23.334c-.216-1.323-1.35-2.133-2.592-2.133-1.215 0-2.16.648-2.106 1.674.054 1.053 1.269 1.512 2.619 1.728 4.212.675 6.291 1.782 6.291 4.482 0 2.862-2.7 4.239-6.372 4.239-4.185 0-6.858-1.81-7.074-4.86l4.104-.216c.243 1.377 1.242 2.214 2.889 2.214 1.026 0 2.268-.432 2.268-1.458-.025-1.143-1.245-1.402-2.536-1.676l-.245-.052c-3.942-.756-6.156-1.728-6.156-4.374 0-2.862 2.403-4.563 6.48-4.563 3.618 0 6.048 1.836 6.534 4.833l-4.104.162z" fill="#6B7280"/><path d="M173.523 23.334c-.216-1.323-1.35-2.133-2.592-2.133-1.215 0-2.16.648-2.106 1.674.054 1.053 1.269 1.512 2.619 1.728 4.212.675 6.291 1.782 6.291 4.482 0 2.862-2.7 4.239-6.372 4.239-4.185 0-6.858-1.81-7.074-4.86l4.104-.216c.243 1.377 1.242 2.214 2.889 2.214 1.026 0 2.268-.432 2.268-1.458-.025-1.143-1.245-1.402-2.536-1.676l-.245-.052c-3.942-.756-6.156-1.728-6.156-4.374 0-2.862 2.403-4.563 6.48-4.563 3.618 0 6.048 1.836 6.534 4.833l-4.104.162z" fill="#000"/></svg>