<svg width="202" height="59" viewBox="0 0 202 59" fill="none" xmlns="http://www.w3.org/2000/svg"><path d="M21.768 7.884C10.032 11.028 3.067 23.092 6.212 34.828 9.356 46.564 21.42 53.529 33.156 50.384c10.53-2.821 17.218-12.821 16.212-23.324l-.153.041c.065 6.532-4.272 12.533-10.873 14.302-7.825 2.096-15.867-2.547-17.963-10.371-2.097-7.824 2.546-15.867 10.37-17.963 6.602-1.769 13.358 1.26 16.568 6.949l.153-.041C43.09 10.378 32.298 5.062 21.768 7.884z" fill="#459CF2"/><path d="M6.212 34.828c-3.145-11.736 3.82-23.8 15.556-26.944 10.53-2.822 21.322 2.494 25.702 12.093l-14.32 3.837c-3.21-5.69-9.966-8.718-16.567-6.949C8.758 18.962 4.114 27.004 6.211 34.828z" fill="#FCE04B"/><path d="M6.212 34.828C9.355 46.564 21.42 53.529 33.155 50.384c10.53-2.821 17.218-12.821 16.212-23.324l-14.32 3.837c.065 6.532-4.272 12.533-10.874 14.302-7.824 2.096-15.866-2.547-17.962-10.371zm59.538 4.306h-3.9v-19.5h3.9v19.5zm20.28 0L73.94 25.679v13.455h-3.9v-19.5h3.51l12.09 13.455V19.634h3.9v19.5h-3.51zm23.804 0l-12.09-13.455v13.455h-3.9v-19.5h3.51l12.09 13.455V19.634h3.9v19.5h-3.51zm16.981-19.89c5.85 0 10.14 4.29 10.14 10.14 0 5.85-4.29 10.14-10.14 10.14-5.85 0-10.14-4.29-10.14-10.14 0-5.85 4.29-10.14 10.14-10.14zm0 16.575c3.51 0 6.045-2.73 6.045-6.435 0-3.705-2.535-6.435-6.045-6.435s-6.045 2.73-6.045 6.435c0 3.705 2.535 6.435 6.045 6.435zm10.143-16.185h4.212l6.552 15.99h.39l6.552-15.99h4.134l-7.995 19.5h-5.85l-7.995-19.5zm24.435 19.5h-4.134l7.995-19.5h5.85l7.995 19.5h-4.212l-1.599-3.9h-10.296l-1.599 3.9zm3.042-7.41h7.41l-3.51-8.58h-.39l-3.51 8.58zm17.203 7.41v-19.5h14.04c3.51 0 5.85 2.34 5.85 5.85 0 3.12-2.028 5.304-5.109 5.616.273.312.546.663.702.936l4.407 7.098h-4.407l-4.953-7.995h-6.63v7.995h-3.9zm3.9-11.505h10.14c1.17 0 1.95-.78 1.95-1.95v-.585c0-1.17-.78-1.95-1.95-1.95h-10.14v4.485z" fill="#023363"/></svg>