<svg width="166" height="40" viewBox="0 0 166 40" fill="none" xmlns="http://www.w3.org/2000/svg"><path opacity=".4" d="M39.083 17.698a4.436 4.436 0 11-6.273-6.273 4.436 4.436 0 016.273 6.273z" fill="#155EEF"/><path opacity=".6" d="M39.08 17.696a4.436 4.436 0 01-6.274 0l-6.195-6.195a4.436 4.436 0 00-6.273 6.273l6.195 6.195a4.436 4.436 0 006.273 0l6.274-6.273z" fill="#155EEF"/><path d="M32.806 23.971a4.436 4.436 0 01-6.273 0L14.509 11.947a5.914 5.914 0 00-8.365 0L.917 17.175a4.436 4.436 0 016.273 0l13.07 13.07a4.436 4.436 0 006.273 0l6.273-6.274z" fill="#155EEF"/><path d="M61.218 27.5l-3.015-11.295L55.188 27.5h-3.465l-4.14-16.155h3.33l2.61 10.957 2.97-10.957h3.488l2.88 11.002 2.633-11.002h3.352L64.683 27.5h-3.465zm12.009-14.805c0 1.057-.855 1.845-2.092 1.845-1.215 0-2.07-.788-2.07-1.845 0-1.103.855-1.89 2.07-1.89 1.237 0 2.092.787 2.092 1.89zM72.732 27.5h-3.127V15.485h3.127V27.5zm5.034 0h-3.15V11.345h3.15V27.5zm1.117-6.008c0-3.555 2.092-6.232 5.332-6.232 1.44 0 2.655.63 3.555 1.777v-5.692h3.105V27.5h-2.857v-1.733c-.945 1.26-2.25 1.958-3.803 1.958-3.24 0-5.332-2.723-5.332-6.233zm3.217 0c0 2.25 1.283 3.443 2.813 3.443 1.552 0 2.835-1.215 2.835-3.488 0-2.272-1.305-3.42-2.835-3.42s-2.813 1.17-2.813 3.465zm15.73 6.233c-3.466 0-5.85-2.565-5.85-6.233 0-3.6 2.474-6.232 5.85-6.232 3.127 0 5.444 2.115 5.827 5.355h-3.285c-.158-1.598-1.125-2.588-2.543-2.588-1.62 0-2.655 1.328-2.655 3.465 0 2.16 1.013 3.465 2.655 3.465 1.44 0 2.363-.945 2.543-2.587h3.285c-.36 3.307-2.61 5.355-5.828 5.355zm10.062-6.053V27.5h-3.127V15.485h2.88v2.317c.877-1.53 2.745-2.452 4.68-2.452v3.24c-2.655-.203-4.433.427-4.433 3.082zm12.312 5.828v-1.485c-.787 1.125-1.98 1.71-3.622 1.71-2.498 0-4.163-1.463-4.163-3.713 0-2.34 1.89-3.6 5.4-3.6.675 0 1.26.045 2.003.135v-.72c0-1.35-.765-2.137-2.07-2.137-1.35 0-2.16.787-2.273 2.137h-2.812c.18-2.767 2.182-4.567 5.085-4.567 3.15 0 4.995 1.732 4.995 4.68v7.56h-2.543zm-4.837-3.578c0 1.013.72 1.643 1.89 1.643 1.597 0 2.565-.878 2.565-2.273v-.855c-.743-.112-1.26-.157-1.8-.157-1.778 0-2.655.562-2.655 1.642zm13.251 3.578h-3.105v-9.338h-2.43v-2.677h2.43v-.653c0-2.385 1.283-3.735 3.78-3.735.765 0 1.418.135 1.935.36v2.475c-.337-.135-.787-.202-1.192-.202-.855 0-1.418.337-1.418 1.17v.585h3.128v2.677h-3.128V27.5z" fill="#0C111D"/><path d="M140.56 24.462v2.723c-.765.382-1.485.54-2.407.54-2.475 0-4.028-1.418-4.028-4.118v-5.445h-2.43v-2.677h2.43V11.93h3.105v3.555h3.442v2.677h-3.442v4.725c0 1.395.63 1.958 1.755 1.958.585 0 1.125-.135 1.575-.383z" fill="#0C111D"/><path d="M146.639 27.702c-3.6 0-6.008-2.497-6.008-6.255 0-3.577 2.498-6.187 5.963-6.187 3.802 0 6.322 3.082 5.76 6.997h-8.528c.203 1.958 1.148 3.038 2.745 3.038 1.373 0 2.295-.675 2.655-1.868h3.105c-.675 2.723-2.767 4.275-5.692 4.275zm-.113-10.147c-1.462 0-2.385.945-2.655 2.722h5.175c-.09-1.665-1.035-2.722-2.52-2.722z" fill="#0C111D"/><path d="M152.541 21.492c0-3.555 2.093-6.232 5.333-6.232 1.44 0 2.655.63 3.555 1.777v-5.692h3.105V27.5h-2.858v-1.733c-.945 1.26-2.25 1.958-3.802 1.958-3.24 0-5.333-2.723-5.333-6.233zm3.218 0c0 2.25 1.282 3.443 2.812 3.443 1.553 0 2.835-1.215 2.835-3.488 0-2.272-1.305-3.42-2.835-3.42s-2.812 1.17-2.812 3.465z" fill="#0C111D"/></svg>