<svg width="222" height="48" viewBox="0 0 222 48" fill="none" xmlns="http://www.w3.org/2000/svg"><path d="M16 4c0 8.837-7.163 16-16 16a23.89 23.89 0 0113.271 4C19.738 19.7 24 12.348 24 4h-8z" fill="gold"/><path opacity=".8" d="M40 20c-8.837 0-16-7.163-16-16a23.89 23.89 0 01-4 13.271C24.3 23.738 31.652 28 40 28v-8z" fill="gold"/><path opacity=".6" d="M24 44c0-8.837 7.163-16 16-16a23.89 23.89 0 01-13.271-4C20.262 28.3 16 35.652 16 44h8z" fill="gold"/><path opacity=".4" d="M0 28c8.837 0 16 7.163 16 16a23.89 23.89 0 014-13.271C15.7 24.262 8.348 20 0 20v8z" fill="gold"/><path d="M54.563 33H50V13.776h4.563V33zm18.882-14.256c1.53 0 2.727.46 3.591 1.377.864.9 1.296 2.178 1.296 3.834V33H74.12v-8.316c0-1.566-.693-2.349-2.079-2.349-.738 0-1.323.252-1.755.756-.432.504-.648 1.242-.648 2.214V33h-4.212v-8.316c0-1.566-.693-2.349-2.079-2.349-.738 0-1.332.252-1.782.756-.432.504-.648 1.242-.648 2.214V33h-4.212V19.068h4.355l-.25 1.971c1.025-1.53 2.348-2.295 3.968-2.295 2.088 0 3.528.837 4.32 2.511 1.134-1.674 2.583-2.51 4.347-2.51zm16.46 2.16l-.245-1.836h4.35v13.5c0 1.89-.63 3.366-1.89 4.428-1.243 1.08-2.989 1.62-5.239 1.62-2.07 0-3.69-.459-4.86-1.377-1.17-.9-1.8-2.142-1.89-3.726h4.158c.108 1.296 1 1.944 2.673 1.944.918 0 1.62-.243 2.106-.729.486-.468.73-1.134.73-1.998v-1.998c-.883 1.314-2.215 1.971-3.997 1.971-1.836 0-3.32-.648-4.455-1.944-1.134-1.296-1.7-2.979-1.7-5.049 0-2.052.557-3.735 1.673-5.049 1.116-1.278 2.583-1.917 4.401-1.917 1.872 0 3.267.72 4.185 2.16zm-3.024 8.424c.954 0 1.692-.306 2.214-.918.522-.63.783-1.53.783-2.7 0-1.17-.26-2.06-.783-2.673-.504-.612-1.242-.918-2.214-.918-.936 0-1.665.324-2.187.972-.522.63-.783 1.521-.783 2.673 0 1.134.261 2.016.783 2.646.522.612 1.251.918 2.187.918zm18.025 4.104c-2.862 0-5.175-.909-6.939-2.727-1.764-1.818-2.646-4.257-2.646-7.317 0-3.096.864-5.544 2.592-7.344 1.728-1.8 4.059-2.7 6.993-2.7 2.376 0 4.392.63 6.048 1.89 1.692 1.278 2.709 3.087 3.051 5.427h-4.617c-.288-1.08-.828-1.908-1.62-2.484-.774-.594-1.728-.89-2.862-.89-1.548 0-2.745.53-3.591 1.592-.828 1.062-1.242 2.565-1.242 4.51 0 1.943.414 3.446 1.242 4.508.846 1.062 2.043 1.593 3.591 1.593 1.188 0 2.196-.342 3.024-1.026.828-.684 1.35-1.638 1.566-2.862h4.563c-.288 2.484-1.269 4.41-2.943 5.778-1.692 1.368-3.762 2.052-6.21 2.052zm22.524-2.106c-1.332 1.332-3.105 1.998-5.319 1.998s-3.987-.666-5.319-1.998c-1.332-1.332-1.998-3.096-1.998-5.292 0-2.214.666-3.987 1.998-5.319 1.314-1.314 3.087-1.97 5.319-1.97 2.232 0 4.005.656 5.319 1.97s1.971 3.087 1.971 5.32c0 2.213-.657 3.977-1.971 5.291zm-5.319-1.377c.972 0 1.719-.333 2.241-.999.522-.666.783-1.638.783-2.916s-.261-2.25-.783-2.916c-.522-.666-1.269-.999-2.241-.999-.99 0-1.746.333-2.268 1-.522.665-.783 1.637-.783 2.915s.261 2.25.783 2.916c.522.666 1.278 1 2.268 1zm25.349-11.205c1.53 0 2.727.46 3.591 1.377.864.9 1.296 2.178 1.296 3.834V33h-4.212v-8.316c0-1.566-.693-2.349-2.079-2.349-.738 0-1.323.252-1.755.756-.432.504-.648 1.242-.648 2.214V33h-4.212v-8.316c0-1.566-.693-2.349-2.079-2.349-.738 0-1.332.252-1.782.756-.432.504-.648 1.242-.648 2.214V33h-4.212V19.068h4.35l-.246 1.971c1.026-1.53 2.349-2.295 3.969-2.295 2.088 0 3.528.837 4.32 2.511 1.134-1.674 2.583-2.51 4.347-2.51zm15.083 0c1.872 0 3.357.657 4.455 1.971 1.08 1.314 1.62 3.087 1.62 5.32 0 2.231-.54 4.004-1.62 5.318-1.098 1.314-2.583 1.971-4.455 1.971-1.782 0-3.15-.675-4.104-2.025v6.993h-4.212V19.068h4.353l-.249 1.863c.954-1.458 2.358-2.187 4.212-2.187zm-1.161 11.205c.936 0 1.665-.342 2.187-1.026.522-.702.783-1.7.783-2.997 0-2.538-.99-3.807-2.97-3.807-1.998 0-2.997 1.305-2.997 3.915 0 2.61.999 3.915 2.997 3.915zm16.62-11.097c.072 0 .378.018.918.054v3.834h-1.08c-2.466 0-3.699 1.26-3.699 3.78V33h-4.212V19.068h4.351l-.247 2.592c.648-1.872 1.971-2.808 3.969-2.808zm15.362 7.588v.836H183.05c.144.954.495 1.683 1.053 2.187.558.504 1.269.756 2.133.756 1.368 0 2.304-.522 2.808-1.566h3.996a5.847 5.847 0 01-2.403 3.43c-1.224.827-2.691 1.241-4.401 1.241-2.16 0-3.906-.666-5.238-1.998-1.332-1.332-1.998-3.096-1.998-5.292 0-2.214.657-3.978 1.971-5.292 1.296-1.332 3.033-1.998 5.211-1.998 2.16 0 3.906.693 5.238 2.08 1.296 1.403 1.944 3.275 1.944 5.615zm-7.236-4.59c-1.728 0-2.745.917-3.051 2.753h6.156c-.144-.864-.486-1.539-1.026-2.025s-1.233-.729-2.079-.729zm14.578 11.555c-2.196 0-3.834-.378-4.914-1.134-1.062-.774-1.656-2.007-1.782-3.699h4.104c.072.738.306 1.26.702 1.566.414.306 1.071.46 1.971.46 1.566 0 2.349-.45 2.349-1.35 0-.433-.171-.757-.513-.973-.342-.234-.972-.423-1.89-.567l-1.809-.297c-3.132-.486-4.698-1.908-4.698-4.266 0-1.404.54-2.484 1.62-3.24 1.08-.774 2.628-1.16 4.644-1.16 4.158 0 6.318 1.592 6.48 4.778h-3.915c-.018-1.314-.873-1.97-2.565-1.97-1.422 0-2.133.44-2.133 1.322 0 .396.162.702.486.918.324.216.837.378 1.539.486l2.079.297c1.674.252 2.907.73 3.699 1.431.792.702 1.188 1.665 1.188 2.89 0 1.44-.585 2.555-1.755 3.347-1.152.774-2.781 1.161-4.887 1.161zm13.936 0c-2.196 0-3.834-.378-4.914-1.134-1.062-.774-1.656-2.007-1.782-3.699h4.104c.072.738.306 1.26.702 1.566.414.306 1.071.46 1.971.46 1.566 0 2.349-.45 2.349-1.35 0-.433-.171-.757-.513-.973-.342-.234-.972-.423-1.89-.567l-1.809-.297c-3.132-.486-4.698-1.908-4.698-4.266 0-1.404.54-2.484 1.62-3.24 1.08-.774 2.628-1.16 4.644-1.16 4.158 0 6.318 1.592 6.48 4.778h-3.915c-.018-1.314-.873-1.97-2.565-1.97-1.422 0-2.133.44-2.133 1.322 0 .396.162.702.486.918.324.216.837.378 1.539.486l2.079.297c1.674.252 2.907.73 3.699 1.431.792.702 1.188 1.665 1.188 2.89 0 1.44-.585 2.555-1.755 3.347-1.152.774-2.781 1.161-4.887 1.161z" fill="#fff"/></svg>