<svg width="202" height="48" viewBox="0 0 202 48" fill="none" xmlns="http://www.w3.org/2000/svg"><path d="M0 9a5 5 0 015-5h10a5 5 0 015 5v10a5 5 0 004.988 5H35a5 5 0 015 5v10a5 5 0 01-5 5H25a5 5 0 01-5-5V28.958A5 5 0 0015 24H5a5 5 0 01-5-5V9z" fill="gold"/><path fill-rule="evenodd" clip-rule="evenodd" d="M94.153 33.36c-1.4 0-2.65-.34-3.75-1.02-1.1-.68-1.97-1.61-2.61-2.79-.64-1.18-.96-2.52-.96-4.02 0-1.5.32-2.83.96-3.99.64-1.18 1.51-2.1 2.61-2.76 1.1-.68 2.35-1.02 3.75-1.02 1.12 0 2.1.21 2.94.63a5.3 5.3 0 012.04 1.77V11.4h3.84V33h-3.42l-.42-2.13c-.48.66-1.12 1.24-1.92 1.74-.78.5-1.8.75-3.06.75zm.81-3.36c1.24 0 2.25-.41 3.03-1.23.8-.84 1.2-1.91 1.2-3.21s-.4-2.36-1.2-3.18c-.78-.84-1.79-1.26-3.03-1.26-1.22 0-2.23.41-3.03 1.23-.8.82-1.2 1.88-1.2 3.18 0 1.3.4 2.37 1.2 3.21.8.84 1.81 1.26 3.03 1.26z" fill="#fff"/><path d="M54.74 32.01c1.52.9 3.34 1.35 5.46 1.35 2.52 0 4.58-.61 6.18-1.83 1.62-1.22 2.63-2.91 3.03-5.07h-4.23c-.26 1.08-.82 1.93-1.68 2.55-.84.6-1.96.9-3.36.9-1.94 0-3.46-.65-4.56-1.95-1.1-1.32-1.65-3.13-1.65-5.43s.55-4.11 1.65-5.43c1.1-1.32 2.62-1.98 4.56-1.98 1.4 0 2.52.33 3.36.99.86.64 1.42 1.53 1.68 2.67h4.23c-.4-2.26-1.41-4.01-3.03-5.25-1.6-1.26-3.66-1.89-6.18-1.89-2.12 0-3.94.46-5.46 1.38-1.52.92-2.69 2.2-3.51 3.84-.82 1.64-1.23 3.53-1.23 5.67s.41 4.03 1.23 5.67c.82 1.62 1.99 2.89 3.51 3.81z" fill="#fff"/><path fill-rule="evenodd" clip-rule="evenodd" d="M74.16 32.37c1.16.66 2.46.99 3.9.99 1.42 0 2.71-.33 3.87-.99a7.16 7.16 0 002.73-2.73c.68-1.18 1.02-2.54 1.02-4.08s-.34-2.89-1.02-4.05a7.101 7.101 0 00-2.73-2.76c-1.14-.66-2.42-.99-3.84-.99-1.44 0-2.74.33-3.9.99-1.14.66-2.05 1.58-2.73 2.76-.68 1.16-1.02 2.51-1.02 4.05s.33 2.9.99 4.08a7.447 7.447 0 002.73 2.73zm6.51-3.45c-.74.74-1.61 1.11-2.61 1.11-1 0-1.87-.37-2.61-1.11-.72-.76-1.08-1.88-1.08-3.36s.36-2.59 1.08-3.33c.74-.76 1.62-1.14 2.64-1.14.98 0 1.84.38 2.58 1.14.74.74 1.11 1.85 1.11 3.33s-.37 2.6-1.11 3.36zm27.653 3.48c1.16.64 2.49.96 3.99.96 1.2 0 2.27-.22 3.21-.66.96-.44 1.76-1.04 2.4-1.8.66-.78 1.13-1.64 1.41-2.58h-3.9c-.26.56-.66 1.02-1.2 1.38-.52.34-1.17.51-1.95.51-1.04 0-1.93-.33-2.67-.99-.72-.66-1.12-1.57-1.2-2.73h11.31c.02-.26.03-.51.03-.75.02-.24.03-.47.03-.69 0-1.36-.32-2.59-.96-3.69-.62-1.12-1.49-2-2.61-2.64-1.12-.64-2.41-.96-3.87-.96-1.56 0-2.92.34-4.08 1.02-1.14.66-2.04 1.59-2.7 2.79-.64 1.2-.96 2.57-.96 4.11 0 1.52.33 2.86.99 4.02a6.948 6.948 0 002.73 2.7zm1.53-10.71c.72-.54 1.55-.81 2.49-.81.98 0 1.8.29 2.46.87.66.58 1.02 1.36 1.08 2.34h-7.41c.2-1.08.66-1.88 1.38-2.4z" fill="#fff"/><path d="M128.503 33.36c-1.52 0-2.86-.33-4.02-.99a7.314 7.314 0 01-2.76-2.76c-.661-1.18-.99-2.53-.99-4.05s.329-2.87.99-4.05c.68-1.18 1.6-2.1 2.76-2.76 1.16-.66 2.5-.99 4.02-.99 1.9 0 3.5.5 4.8 1.5 1.3.98 2.13 2.34 2.49 4.08h-4.05c-.2-.72-.6-1.28-1.2-1.68-.58-.42-1.27-.63-2.07-.63-1.06 0-1.96.4-2.7 1.2-.74.8-1.11 1.91-1.11 3.33 0 1.42.37 2.53 1.11 3.33.74.8 1.64 1.2 2.7 1.2.8 0 1.49-.2 2.07-.6.6-.4 1-.97 1.2-1.71h4.05c-.36 1.68-1.19 3.03-2.49 4.05-1.3 1.02-2.9 1.53-4.8 1.53zm12.678-12.45l-.36-2.79h-3.42V33h3.84v-6.78c0-1.14.18-2.03.54-2.67.38-.64.9-1.09 1.56-1.35s1.41-.39 2.25-.39h1.08v-4.05c-1.26 0-2.36.29-3.3.87-.92.56-1.65 1.32-2.19 2.28z" fill="#fff"/><path fill-rule="evenodd" clip-rule="evenodd" d="M152.625 33.36c-1.28 0-2.33-.2-3.15-.6-.82-.42-1.43-.97-1.83-1.65-.4-.68-.6-1.43-.6-2.25 0-1.38.54-2.5 1.62-3.36 1.08-.86 2.7-1.29 4.86-1.29h3.78v-.36c0-1.02-.29-1.77-.87-2.25-.58-.48-1.3-.72-2.16-.72-.78 0-1.46.19-2.04.57-.58.36-.94.9-1.08 1.62h-3.75c.1-1.08.46-2.02 1.08-2.82.64-.8 1.46-1.41 2.46-1.83 1-.44 2.12-.66 3.36-.66 2.12 0 3.79.53 5.01 1.59 1.22 1.06 1.83 2.56 1.83 4.5V33h-3.27l-.36-2.4c-.44.8-1.06 1.46-1.86 1.98-.78.52-1.79.78-3.03.78zm.87-3c1.1 0 1.95-.36 2.55-1.08.62-.72 1.01-1.61 1.17-2.67h-3.27c-1.02 0-1.75.19-2.19.57-.44.36-.66.81-.66 1.35 0 .58.22 1.03.66 1.35.44.32 1.02.48 1.74.48z" fill="#fff"/><path d="M165.05 12.54c-.9.76-1.35 2.04-1.35 3.84v1.74h-2.04v3.21h2.04V33h3.84V21.33h5.921v6.48c0 1.94.47 3.29 1.41 4.05.94.76 2.19 1.14 3.75 1.14h2.61v-3.27h-1.86c-.76 0-1.3-.13-1.62-.39-.3-.28-.45-.78-.45-1.5v-6.51h4.02v-3.21h-4.02v-3.99h-3.39l-.45 3.99h-5.921v-1.74c0-.62.14-1.06.42-1.32.28-.26.75-.39 1.41-.39h1.05V11.4h-1.65c-1.56 0-2.8.38-3.72 1.14zm17.438 21.6v3.66h19.19v-3.66h-19.19z" fill="#fff"/></svg>