<svg width="197" height="48" viewBox="0 0 197 48" fill="none" xmlns="http://www.w3.org/2000/svg"><path opacity=".4" d="M45.8 21.237a5.323 5.323 0 11-7.528-7.527 5.323 5.323 0 017.528 7.527z" fill="gold"/><path opacity=".6" d="M45.795 21.236a5.323 5.323 0 01-7.528 0L30.833 13.8a5.323 5.323 0 10-7.528 7.528l7.434 7.434a5.323 5.323 0 007.528 0l7.528-7.527z" fill="gold"/><path d="M38.267 28.765a5.323 5.323 0 01-7.528 0L16.311 14.337a7.097 7.097 0 00-10.038 0L0 20.61a5.323 5.323 0 017.528 0L23.21 36.293a5.323 5.323 0 007.528 0l7.528-7.528z" fill="gold"/><path d="M72.362 33l-3.618-13.554L65.126 33h-4.158L56 13.614h3.996l3.132 13.149 3.564-13.15h4.185l3.456 13.204 3.159-13.203h4.023L76.52 33h-4.158zm14.411-17.766c0 1.269-1.026 2.214-2.511 2.214-1.458 0-2.484-.945-2.484-2.214 0-1.323 1.026-2.268 2.484-2.268 1.485 0 2.51.945 2.51 2.268zM86.179 33h-3.753V18.582h3.753V33zm6.039 0h-3.78V13.614h3.78V33zm1.341-7.21c0-4.265 2.51-7.478 6.399-7.478 1.728 0 3.186.756 4.266 2.133v-6.831h3.726V33h-3.429v-2.08c-1.134 1.513-2.7 2.35-4.563 2.35-3.888 0-6.4-3.267-6.4-7.48zm3.86 0c0 2.7 1.54 4.132 3.376 4.132 1.863 0 3.402-1.458 3.402-4.185 0-2.727-1.566-4.104-3.402-4.104s-3.375 1.404-3.375 4.158zm18.876 7.48c-4.158 0-7.02-3.078-7.02-7.48 0-4.32 2.97-7.478 7.02-7.478 3.753 0 6.534 2.538 6.993 6.426h-3.942c-.189-1.917-1.35-3.105-3.051-3.105-1.944 0-3.186 1.593-3.186 4.158 0 2.592 1.215 4.158 3.186 4.158 1.728 0 2.835-1.134 3.051-3.105h3.942c-.432 3.969-3.132 6.426-6.993 6.426zm12.075-7.263V33h-3.753V18.582h3.456v2.78c1.053-1.835 3.294-2.942 5.616-2.942v3.888c-3.186-.243-5.319.513-5.319 3.699zM143.145 33v-1.782c-.945 1.35-2.376 2.052-4.347 2.052-2.997 0-4.995-1.755-4.995-4.455 0-2.808 2.268-4.32 6.48-4.32.81 0 1.512.054 2.403.162v-.864c0-1.62-.918-2.565-2.484-2.565-1.62 0-2.592.945-2.727 2.565H134.1c.216-3.321 2.619-5.481 6.102-5.481 3.78 0 5.994 2.079 5.994 5.616V33h-3.051zm-5.805-4.293c0 1.215.864 1.97 2.268 1.97 1.917 0 3.078-1.052 3.078-2.726v-1.026c-.891-.135-1.512-.19-2.16-.19-2.133 0-3.186.676-3.186 1.972zM153.242 33h-3.726V21.795H146.6v-3.213h2.916v-.783c0-2.862 1.539-4.482 4.536-4.482.918 0 1.701.162 2.322.432v2.97c-.405-.162-.945-.243-1.431-.243-1.026 0-1.701.405-1.701 1.404v.702h3.753v3.213h-3.753V33z" fill="#fff"/><path d="M167.572 29.355v3.267c-.918.459-1.782.648-2.889.648-2.97 0-4.833-1.701-4.833-4.941v-6.534h-2.916v-3.213h2.916v-4.266h3.726v4.266h4.131v3.213h-4.131v5.67c0 1.674.756 2.349 2.106 2.349.702 0 1.35-.162 1.89-.46z" fill="#fff"/><path d="M174.866 33.243c-4.32 0-7.209-2.997-7.209-7.506 0-4.293 2.997-7.425 7.155-7.425 4.563 0 7.587 3.699 6.912 8.397h-10.233c.243 2.349 1.377 3.645 3.294 3.645 1.647 0 2.754-.81 3.186-2.241h3.726c-.81 3.267-3.321 5.13-6.831 5.13zm-.135-12.177c-1.755 0-2.862 1.134-3.186 3.267h6.21c-.108-1.998-1.242-3.267-3.024-3.267z" fill="#fff"/><path d="M181.949 25.79c0-4.265 2.511-7.478 6.399-7.478 1.728 0 3.186.756 4.266 2.133v-6.831h3.726V33h-3.429v-2.08c-1.134 1.513-2.7 2.35-4.563 2.35-3.888 0-6.399-3.267-6.399-7.48zm3.861 0c0 2.7 1.539 4.132 3.375 4.132 1.863 0 3.402-1.458 3.402-4.185 0-2.727-1.566-4.104-3.402-4.104s-3.375 1.404-3.375 4.158z" fill="#fff"/></svg>