<svg width="182" height="48" viewBox="0 0 182 48" fill="none" xmlns="http://www.w3.org/2000/svg"><path fill-rule="evenodd" clip-rule="evenodd" d="M20 4c11.046 0 20 8.954 20 20s-8.954 20-20 20S0 35.046 0 24 8.954 4 20 4zm15 20c0 8.284-6.716 15-15 15V9c8.284 0 15 6.716 15 15z" fill="gold"/><path d="M59.423 12.912c5.508 0 8.127 2.754 8.64 6.75h-3.969c-.459-2.025-2.052-3.24-4.644-3.24-3.375 0-5.373 2.16-5.373 6.615 0 5.13 2.376 6.831 5.454 6.831 2.565 0 4.104-1.188 4.59-3.24h3.942c-.567 4.401-3.618 6.75-8.64 6.75-6.021 0-9.423-3.402-9.423-10.152 0-5.967 2.943-10.314 9.423-10.314zm13.799 12.933c0 3.267 1.243 4.401 3.349 4.401 2.079 0 3.294-1.134 3.294-4.401 0-3.213-1.215-4.374-3.294-4.374-2.106 0-3.349 1.161-3.349 4.374zm-4.022 0c0-4.86 2.564-7.479 7.37-7.479s7.345 2.619 7.345 7.479c0 4.887-2.566 7.533-7.345 7.533-4.805 0-7.37-2.646-7.37-7.533zm24.683-7.479c2.997 0 4.725 1.188 5.076 3.807.081.729.108 1.404.108 2.565V33h-3.86v-8.316c0-1.89-.514-3.105-2.647-3.105-1.755-.054-2.997 1.161-2.997 3.861V33h-3.86V18.744h3.536l.162 2.322c.46-2.106 2.133-2.7 4.482-2.7zm12.458 9.693c0 2.106.459 2.295 3.024 2.16v2.916c-.891.108-1.647.189-2.916.189-2.862 0-3.78-1.161-3.942-2.997-.054-.783-.054-1.35-.054-2.16v-6.345h-2.052v-3.051h2.052v-4.158h3.888v4.158h3.186v3.051h-3.186v6.237zm12.331-9.693c.513 0 .837 0 1.161.081v3.132c-3.429-.351-4.995 1.215-4.995 5.238V33h-3.861V18.744h3.537l.162 2.727c.27-2.214 1.836-3.105 3.996-3.105zm7.984 0c4.212 0 5.778 1.809 5.967 4.32.054.729.081 1.404.081 2.214V33h-3.483l-.216-1.89c-.648 1.917-2.349 2.268-4.455 2.268-2.619 0-4.671-1.485-4.671-4.266 0-3.564 2.727-4.86 8.235-4.86h.783v-.513c0-1.404-.459-2.295-2.403-2.295-1.701 0-2.457.594-2.619 1.917h-3.537c.108-3.078 1.998-4.995 6.318-4.995zm-3.024 10.287c0 1.053.837 1.647 2.16 1.647 1.512 0 3.105-.864 3.105-2.268v-1.134c-3.402-.162-5.265.189-5.265 1.755zm16.78-10.287c4.05 0 5.778 1.566 5.967 4.563h-3.726c-.189-1.323-1.08-1.647-2.322-1.647-1.134 0-1.998.432-1.998 1.242 0 .864.702 1.35 2.916 1.701 3.753.567 5.562 1.863 5.562 4.671 0 3.024-2.754 4.482-6.183 4.482-4.05 0-6.129-1.431-6.507-4.671h3.78c.243 1.296 1.053 1.728 2.835 1.728 1.404 0 2.241-.459 2.241-1.215 0-.945-.972-1.485-3.078-1.809-3.78-.621-5.4-1.755-5.4-4.644 0-2.619 2.322-4.401 5.913-4.401zm12.918 9.693c0 2.106.459 2.295 3.024 2.16v2.916c-.891.108-1.647.189-2.916.189-2.862 0-3.78-1.161-3.942-2.997-.054-.783-.054-1.35-.054-2.16v-6.345h-2.052v-3.051h2.052v-4.158h3.888v4.158h3.186v3.051h-3.186v6.237zm15.54-14.769L175.836 33h-4.185l-1.647-4.752h-7.263L161.067 33h-4.131l7.101-19.71h4.833zm-5.184 11.61h5.427l-2.673-7.911-2.754 7.911zm17.669-11.61V33h-3.942V13.29h3.942z" fill="#fff"/></svg>